<svg width="30" height="48" viewBox="0 0 30 48" fill="none" xmlns="http://www.w3.org/2000/svg">
<path d="M5.99999 47.8906C5.84431 47.8914 5.68934 47.8695 5.53999 47.8256C5.33169 47.7643 5.13759 47.6624 4.96888 47.5257C4.80016 47.3891 4.66018 47.2203 4.55699 47.0293C4.4538 46.8383 4.38945 46.6287 4.36765 46.4127C4.34586 46.1966 4.36704 45.9784 4.42999 45.7706L8.96499 29.8906H2.15999C1.95753 29.8978 1.75566 29.8648 1.566 29.7936C1.37635 29.7223 1.20268 29.6143 1.05499 29.4756C0.730601 29.1904 0.532226 28.7885 0.503184 28.3576C0.474143 27.9266 0.616795 27.5017 0.899988 27.1756L22.09 1.48562C22.2894 1.24483 22.5535 1.06607 22.8512 0.970397C23.1488 0.874724 23.4676 0.866125 23.77 0.945615C23.978 0.995143 24.1738 1.08623 24.3456 1.21341C24.5175 1.34058 24.6618 1.5012 24.77 1.68562C24.9933 2.05627 25.0616 2.49998 24.96 2.92062L20.92 20.8256H27.86C28.1737 20.8274 28.4804 20.9189 28.7439 21.0893C29.0073 21.2596 29.2165 21.5018 29.3469 21.7872C29.4772 22.0726 29.5232 22.3893 29.4795 22.7C29.4357 23.0106 29.3041 23.3023 29.1 23.5406V23.5656L7.22999 47.3406C7.07644 47.5152 6.88712 47.6547 6.67488 47.7496C6.46265 47.8445 6.23247 47.8926 5.99999 47.8906ZM10.295 27.8906C10.4497 27.8908 10.6022 27.9269 10.7406 27.9961C10.8789 28.0652 10.9994 28.1655 11.0924 28.2891C11.1855 28.4127 11.2486 28.5562 11.2768 28.7082C11.305 28.8603 11.2975 29.0169 11.255 29.1656L6.76499 44.8906L27.045 22.8256H19.67C19.5179 22.8294 19.367 22.7983 19.2287 22.735C19.0905 22.6716 18.9685 22.5775 18.872 22.4598C18.7756 22.3422 18.7073 22.2041 18.6723 22.0561C18.6373 21.9081 18.6365 21.754 18.67 21.6056L22.67 3.90562L2.89999 27.8906H10.295Z" fill="black"/>
</svg>
